<?xml version="1.0" encoding="iso-8859-1"?>
<!-- Generator: Adobe Illustrator 18.1.1, SVG Export Plug-In . SVG Version: 6.00 Build 0)  -->
<svg version="1.1" id="Capa_1" xmlns="http://www.w3.org/2000/svg" xmlns:xlink="http://www.w3.org/1999/xlink" x="0px" y="0px"
	 viewBox="0 0 434.293 434.293" style="enable-background:new 0 0 434.293 434.293;" xml:space="preserve">
<g>
	<g>
		<path style="fill:#010002;" d="M266.052,350.322c-5.167-4.324-12.869-3.655-17.198,1.507l-8.104,9.654v-151.01
			c0-6.739-5.461-12.205-12.205-12.205c-6.744,0-12.205,5.466-12.205,12.205v151.016l-8.099-9.654
			c-4.329-5.156-12.02-5.842-17.198-1.507c-5.162,4.335-5.836,12.037-1.501,17.198l29.659,35.343
			c0.098,0.114,0.223,0.196,0.326,0.31c0.354,0.397,0.745,0.767,1.153,1.104c0.239,0.207,0.468,0.413,0.718,0.598
			c0.451,0.326,0.93,0.604,1.43,0.865c0.245,0.136,0.479,0.283,0.734,0.402c0.571,0.256,1.175,0.441,1.784,0.604
			c0.212,0.054,0.408,0.141,0.626,0.19c0.832,0.179,1.692,0.283,2.573,0.283c0.887,0,1.746-0.103,2.578-0.283
			c0.218-0.049,0.413-0.136,0.626-0.19c0.609-0.169,1.213-0.348,1.784-0.604c0.256-0.12,0.49-0.267,0.734-0.402
			c0.495-0.261,0.979-0.544,1.43-0.865c0.25-0.185,0.479-0.392,0.718-0.598c0.408-0.343,0.794-0.707,1.153-1.104
			c0.103-0.114,0.228-0.19,0.326-0.31l29.659-35.343C271.888,362.364,271.214,354.662,266.052,350.322z"/>
		<path style="fill:#010002;" d="M339.36,105.412c-4.525,0-9.051,0.337-13.538,0.984c-17.497-18.275-39.52-31.128-64.23-37.388
			c-0.326-0.087-0.653-0.158-0.979-0.218l-15.936-3.013c-19.499-24.383-49.011-38.71-80.52-38.71
			c-54.179,0-98.735,42.006-102.798,95.167C24.661,136.083,0,171.018,0,211.196c0,52.503,42.724,95.227,95.238,95.227
			c13.549,0,26.809-2.861,38.987-8.349c14.99,14.462,33.026,25.031,52.607,31.275v-34.696c-13.957-6.113-26.575-15.219-36.937-27.38
			c-3.193-3.747-7.762-5.722-12.396-5.722c-3.013,0-6.059,0.832-8.757,2.567c-9.975,6.38-21.566,9.747-33.51,9.747
			c-34.565,0-62.685-28.115-62.685-62.674c0-28.881,20.456-54.538,48.636-61.026c7.68-1.762,12.994-8.779,12.608-16.654
			l-0.109-1.741c-0.038-0.533-0.087-1.071-0.087-1.61c0-38.9,31.65-70.545,70.55-70.545c23.524,0,45.422,11.672,58.579,31.22
			c3.024,4.498,8.088,7.19,13.5,7.19c0.022,0,0.049,0,0.076,0l3.671-0.016l14.082,2.654c20.989,5.428,39.406,17.133,53.27,33.88
			c4.03,4.873,10.497,6.967,16.6,5.379c5.069-1.311,10.258-1.969,15.42-1.969c34.402,0,62.392,27.989,62.392,62.392
			s-27.989,62.381-62.392,62.381c-5.162,0-10.351-0.658-15.414-1.969c-6.113-1.588-12.581,0.517-16.6,5.374
			c-10.182,12.287-22.969,21.593-37.089,27.94v35.055c20.93-6.842,40.042-18.634,55.565-34.832
			c4.493,0.653,9.018,0.984,13.543,0.984c52.351,0,94.944-42.588,94.944-94.933C434.304,148,391.711,105.412,339.36,105.412z"/>
	</g>
</g>
<g>
</g>
<g>
</g>
<g>
</g>
<g>
</g>
<g>
</g>
<g>
</g>
<g>
</g>
<g>
</g>
<g>
</g>
<g>
</g>
<g>
</g>
<g>
</g>
<g>
</g>
<g>
</g>
<g>
</g>
</svg>
